<svg width="125" height="21" viewBox="0 0 125 21" fill="none" xmlns="http://www.w3.org/2000/svg">
<path d="M0.91415 20.5V0.666666H9.58415C11.7375 0.666666 13.6264 1.08222 15.2508 1.91333C16.8753 2.74444 18.1408 3.89667 19.0475 5.37C19.9542 6.84333 20.4075 8.58111 20.4075 10.5833C20.4075 12.5667 19.9542 14.3044 19.0475 15.7967C18.1408 17.27 16.8753 18.4222 15.2508 19.2533C13.6264 20.0844 11.7375 20.5 9.58415 20.5H0.91415ZM4.59748 17.3833H9.41415C10.9064 17.3833 12.1908 17.1 13.2675 16.5333C14.363 15.9667 15.2036 15.1733 15.7891 14.1533C16.3936 13.1333 16.6958 11.9433 16.6958 10.5833C16.6958 9.20444 16.3936 8.01444 15.7891 7.01333C15.2036 5.99333 14.363 5.2 13.2675 4.63333C12.1908 4.06667 10.9064 3.78333 9.41415 3.78333H4.59748V17.3833ZM32.199 20.7833C30.6501 20.7833 29.224 20.5283 27.9207 20.0183C26.6174 19.5083 25.484 18.8 24.5207 17.8933C23.5574 16.9678 22.8112 15.8911 22.2824 14.6633C21.7535 13.4167 21.489 12.0567 21.489 10.5833C21.489 9.11 21.7535 7.75944 22.2824 6.53167C22.8112 5.285 23.5574 4.20833 24.5207 3.30167C25.484 2.37611 26.6174 1.65833 27.9207 1.14833C29.224 0.638333 30.6407 0.383333 32.1707 0.383333C33.7196 0.383333 35.1362 0.638333 36.4207 1.14833C37.724 1.65833 38.8574 2.37611 39.8207 3.30167C40.784 4.20833 41.5301 5.285 42.059 6.53167C42.5879 7.75944 42.8524 9.11 42.8524 10.5833C42.8524 12.0567 42.5879 13.4167 42.059 14.6633C41.5301 15.91 40.784 16.9867 39.8207 17.8933C38.8574 18.8 37.724 19.5083 36.4207 20.0183C35.1362 20.5283 33.729 20.7833 32.199 20.7833ZM32.1707 17.5533C33.1718 17.5533 34.0974 17.3833 34.9474 17.0433C35.7974 16.7033 36.534 16.2217 37.1574 15.5983C37.7807 14.9561 38.2624 14.2194 38.6024 13.3883C38.9612 12.5383 39.1407 11.6033 39.1407 10.5833C39.1407 9.56333 38.9612 8.63778 38.6024 7.80667C38.2624 6.95667 37.7807 6.22 37.1574 5.59667C36.534 4.95444 35.7974 4.46333 34.9474 4.12333C34.0974 3.78333 33.1718 3.61333 32.1707 3.61333C31.1696 3.61333 30.244 3.78333 29.394 4.12333C28.5629 4.46333 27.8262 4.95444 27.184 5.59667C26.5607 6.22 26.0696 6.95667 25.7107 7.80667C25.3707 8.63778 25.2007 9.56333 25.2007 10.5833C25.2007 11.5844 25.3707 12.51 25.7107 13.36C26.0696 14.21 26.5607 14.9561 27.184 15.5983C27.8074 16.2217 28.544 16.7033 29.394 17.0433C30.244 17.3833 31.1696 17.5533 32.1707 17.5533ZM45.3399 20.5V0.666666H48.3716L57.0416 15.145H55.4549L63.9833 0.666666H67.0149L67.0433 20.5H63.5583L63.5299 6.135H64.2666L57.0133 18.2333H55.3699L48.0033 6.135H48.8533V20.5H45.3399ZM70.9838 20.5V0.666666H74.6671V20.5H70.9838ZM78.615 20.5V0.666666H81.6467L94.085 15.9383H92.5833V0.666666H96.2383V20.5H93.2067L80.7683 5.22833H82.27V20.5H78.615ZM100.136 20.5V0.666666H103.819V20.5H100.136ZM105.359 20.5L113.717 8.99667V11.7733L105.756 0.666666H109.921L115.842 8.88333L114.142 8.91167L120.007 0.666666H124.002L116.097 11.575V8.91167L124.512 20.5H120.262L114.029 11.7733H115.701L109.552 20.5H105.359Z" fill="white"/>
</svg>
