<svg width="16" height="17" viewBox="0 0 16 17" fill="none" xmlns="http://www.w3.org/2000/svg">
<path d="M2.01371 0.238099C1.74938 0.237799 1.48757 0.289604 1.24327 0.390554C0.99897 0.491503 0.776962 0.639616 0.589942 0.826425C0.402921 1.01323 0.254556 1.23507 0.153329 1.47926C0.0521028 1.72345 -1.70672e-07 1.98519 0 2.24953C0 3.36191 0.901334 4.28381 2.01143 4.28381C3.12305 4.28381 4.02514 3.36191 4.02514 2.25105C4.02534 1.98678 3.97346 1.72506 3.87247 1.48084C3.77148 1.23663 3.62335 1.01471 3.43655 0.827772C3.24975 0.640832 3.02794 0.492535 2.78381 0.391356C2.53967 0.290177 2.27799 0.238099 2.01371 0.238099ZM11.8362 5.57143C10.1455 5.57143 9.17867 6.45524 8.71391 7.33448H8.66514V5.80838H5.33333V17H8.80533V11.4602C8.80533 10.0004 8.91505 8.58934 10.7215 8.58934C12.5021 8.58934 12.528 10.2541 12.528 11.5524V17H16V10.853C16 7.84496 15.3531 5.57143 11.8362 5.57143ZM0.276571 5.80762V17H3.75086V5.80762H0.276571Z" fill="#C49E05"/>
</svg>
