<svg width="99" height="24" viewBox="0 0 99 24" fill="none" xmlns="http://www.w3.org/2000/svg">
<g id="Frame">
<path id="Vector" d="M2.2334 18.9998V4.9998H8.3534C9.8734 4.9998 11.2067 5.29313 12.3534 5.8798C13.5001 6.46647 14.3934 7.2798 15.0334 8.3198C15.6734 9.3598 15.9934 10.5865 15.9934 11.9998C15.9934 13.3998 15.6734 14.6265 15.0334 15.6798C14.3934 16.7198 13.5001 17.5331 12.3534 18.1198C11.2067 18.7065 9.8734 18.9998 8.3534 18.9998H2.2334ZM4.8334 16.7998H8.2334C9.28673 16.7998 10.1934 16.5998 10.9534 16.1998C11.7267 15.7998 12.3201 15.2398 12.7334 14.5198C13.1601 13.7998 13.3734 12.9598 13.3734 11.9998C13.3734 11.0265 13.1601 10.1865 12.7334 9.4798C12.3201 8.7598 11.7267 8.1998 10.9534 7.7998C10.1934 7.3998 9.28673 7.1998 8.2334 7.1998H4.8334V16.7998ZM24.3169 19.1998C23.2235 19.1998 22.2169 19.0198 21.2969 18.6598C20.3769 18.2998 19.5769 17.7998 18.8969 17.1598C18.2169 16.5065 17.6902 15.7465 17.3169 14.8798C16.9435 13.9998 16.7569 13.0398 16.7569 11.9998C16.7569 10.9598 16.9435 10.0065 17.3169 9.1398C17.6902 8.2598 18.2169 7.4998 18.8969 6.8598C19.5769 6.20647 20.3769 5.6998 21.2969 5.3398C22.2169 4.9798 23.2169 4.7998 24.2969 4.7998C25.3902 4.7998 26.3902 4.9798 27.2969 5.3398C28.2169 5.6998 29.0169 6.20647 29.6969 6.8598C30.3769 7.4998 30.9035 8.2598 31.2769 9.1398C31.6502 10.0065 31.8369 10.9598 31.8369 11.9998C31.8369 13.0398 31.6502 13.9998 31.2769 14.8798C30.9035 15.7598 30.3769 16.5198 29.6969 17.1598C29.0169 17.7998 28.2169 18.2998 27.2969 18.6598C26.3902 19.0198 25.3969 19.1998 24.3169 19.1998ZM24.2969 16.9198C25.0035 16.9198 25.6569 16.7998 26.2569 16.5598C26.8569 16.3198 27.3769 15.9798 27.8169 15.5398C28.2569 15.0865 28.5969 14.5665 28.8369 13.9798C29.0902 13.3798 29.2169 12.7198 29.2169 11.9998C29.2169 11.2798 29.0902 10.6265 28.8369 10.0398C28.5969 9.4398 28.2569 8.9198 27.8169 8.4798C27.3769 8.02647 26.8569 7.6798 26.2569 7.4398C25.6569 7.1998 25.0035 7.0798 24.2969 7.0798C23.5902 7.0798 22.9369 7.1998 22.3369 7.4398C21.7502 7.6798 21.2302 8.02647 20.7769 8.4798C20.3369 8.9198 19.9902 9.4398 19.7369 10.0398C19.4969 10.6265 19.3769 11.2798 19.3769 11.9998C19.3769 12.7065 19.4969 13.3598 19.7369 13.9598C19.9902 14.5598 20.3369 15.0865 20.7769 15.5398C21.2169 15.9798 21.7369 16.3198 22.3369 16.5598C22.9369 16.7998 23.5902 16.9198 24.2969 16.9198ZM33.5928 18.9998V4.9998H35.7328L41.8528 15.2198H40.7328L46.7528 4.9998H48.8928L48.9128 18.9998H46.4528L46.4328 8.8598H46.9528L41.8328 17.3998H40.6728L35.4728 8.8598H36.0728V18.9998H33.5928ZM51.6944 18.9998V4.9998H54.2944V18.9998H51.6944ZM57.0811 18.9998V4.9998H59.2211L68.0011 15.7798H66.9411V4.9998H69.5211V18.9998H67.3811L58.6011 8.2198H59.6611V18.9998H57.0811ZM72.2725 18.9998V4.9998H74.8725V18.9998H72.2725ZM75.9592 18.9998L81.8592 10.8798V12.8398L76.2392 4.9998H79.1792L83.3592 10.7998L82.1592 10.8198L86.2992 4.9998H89.1192L83.5392 12.6998V10.8198L89.4792 18.9998H86.4792L82.0792 12.8398H83.2592L78.9192 18.9998H75.9592Z" fill="white"/>
<path id="Vector_2" d="M98.7795 14H94V18.7795H98.7795V14Z" fill="#FFCC00"/>
</g>
</svg>
