<svg width="16" height="12" viewBox="0 0 16 12" fill="none" xmlns="http://www.w3.org/2000/svg">
<path d="M1.6 11.9733C1.16 11.9733 0.783201 11.827 0.469601 11.5343C0.156001 11.2416 -0.000531975 10.8902 1.35823e-06 10.48V1.52001C1.35823e-06 1.10934 0.156801 0.75766 0.470401 0.464967C0.784001 0.172274 1.16053 0.0261759 1.6 0.0266736H14.4C14.84 0.0266736 15.2168 0.17302 15.5304 0.465713C15.844 0.758407 16.0005 1.10984 16 1.52001V10.48C16 10.8907 15.8432 11.2424 15.5296 11.535C15.216 11.8277 14.8395 11.9738 14.4 11.9733H1.6ZM8 6.74667L14.4 3.01334V1.52001L8 5.25334L1.6 1.52001V3.01334L8 6.74667Z" fill="#C49E05"/>
</svg>
